<?xml version="1.0" encoding="UTF-8" standalone="no"?>
<!DOCTYPE svg PUBLIC "-//W3C//DTD SVG 1.1//EN"
 "http://www.w3.org/Graphics/SVG/1.1/DTD/svg11.dtd">
<!-- Generated by graphviz version 7.0.4 (20221203.1631)
 -->
<!-- Title: markov&#45;graph Pages: 1 -->
<svg width="122pt" height="77pt"
 viewBox="0.00 0.00 122.00 77.00" xmlns="http://www.w3.org/2000/svg" xmlns:xlink="http://www.w3.org/1999/xlink">
<g id="graph0" class="graph" transform="scale(1 1) rotate(0) translate(4 73)">
<title>markov&#45;graph</title>
<polygon fill="white" stroke="none" points="-4,4 -4,-73 118,-73 118,4 -4,4"/>
<!-- J -->
<g id="node1" class="node">
<title>J</title>
<ellipse fill="none" stroke="black" cx="96" cy="-18" rx="18" ry="18"/>
<text text-anchor="middle" x="96" y="-14.3" font-family="Times,serif" font-size="14.00">J</text>
</g>
<!-- J&#45;&gt;J -->
<g id="edge3" class="edge">
<title>J&#45;&gt;J</title>
<path fill="none" stroke="black" d="M89.09,-35.04C87.68,-44.86 89.98,-54 96,-54 99.48,-54 101.72,-50.94 102.71,-46.47"/>
<polygon fill="black" stroke="black" points="106.21,-46.61 102.88,-36.55 99.21,-46.49 106.21,-46.61"/>
<text text-anchor="middle" x="96" y="-57.8" font-family="Times,serif" font-size="14.00">1</text>
</g>
<!-- K -->
<g id="node2" class="node">
<title>K</title>
<ellipse fill="none" stroke="black" cx="18" cy="-18" rx="18" ry="18"/>
<text text-anchor="middle" x="18" y="-14.3" font-family="Times,serif" font-size="14.00">K</text>
</g>
<!-- K&#45;&gt;J -->
<g id="edge2" class="edge">
<title>K&#45;&gt;J</title>
<path fill="none" stroke="black" d="M36.25,-18C45.12,-18 56.18,-18 66.3,-18"/>
<polygon fill="black" stroke="black" points="66.05,-21.5 76.05,-18 66.05,-14.5 66.05,-21.5"/>
<text text-anchor="middle" x="57" y="-21.8" font-family="Times,serif" font-size="14.00">s</text>
</g>
<!-- K&#45;&gt;K -->
<g id="edge1" class="edge">
<title>K&#45;&gt;K</title>
<path fill="none" stroke="black" d="M11.09,-35.04C9.68,-44.86 11.98,-54 18,-54 21.48,-54 23.72,-50.94 24.71,-46.47"/>
<polygon fill="black" stroke="black" points="28.21,-46.61 24.88,-36.55 21.21,-46.49 28.21,-46.61"/>
<text text-anchor="middle" x="18" y="-57.8" font-family="Times,serif" font-size="14.00">r</text>
</g>
</g>
</svg>
