<?xml version="1.0" encoding="UTF-8" standalone="no"?>
<!DOCTYPE svg PUBLIC "-//W3C//DTD SVG 1.1//EN"
 "http://www.w3.org/Graphics/SVG/1.1/DTD/svg11.dtd">
<!-- Generated by graphviz version 7.0.4 (20221203.1631)
 -->
<!-- Title: tree&#45;graph Pages: 1 -->
<svg width="174pt" height="273pt"
 viewBox="0.00 0.00 174.00 272.60" xmlns="http://www.w3.org/2000/svg" xmlns:xlink="http://www.w3.org/1999/xlink">
<g id="graph0" class="graph" transform="scale(1 1) rotate(0) translate(4 268.6)">
<title>tree&#45;graph</title>
<polygon fill="white" stroke="none" points="-4,4 -4,-268.6 170,-268.6 170,4 -4,4"/>
<!-- start -->
<!-- J1 -->
<g id="node2" class="node">
<title>J1</title>
<ellipse fill="none" stroke="black" cx="18" cy="-192" rx="18" ry="18"/>
<text text-anchor="middle" x="18" y="-188.3" font-family="Times,serif" font-size="14.00">J</text>
</g>
<!-- start&#45;&gt;J1 -->
<g id="edge2" class="edge">
<title>start&#45;&gt;J1</title>
<path fill="none" stroke="black" d="M38.36,-260.83C36.6,-258.12 31.66,-250.22 29,-243 26.45,-236.08 24.4,-228.39 22.79,-221.16"/>
<polygon fill="black" stroke="black" points="26.25,-220.59 20.85,-211.48 19.38,-221.97 26.25,-220.59"/>
<text text-anchor="middle" x="34" y="-231.8" font-family="Times,serif" font-size="14.00"> s</text>
</g>
<!-- K1 -->
<g id="node3" class="node">
<title>K1</title>
<ellipse fill="none" stroke="black" cx="72" cy="-192" rx="18" ry="18"/>
<text text-anchor="middle" x="72" y="-188.3" font-family="Times,serif" font-size="14.00">K</text>
</g>
<!-- start&#45;&gt;K1 -->
<g id="edge1" class="edge">
<title>start&#45;&gt;K1</title>
<path fill="none" stroke="black" d="M39.57,-260.61C41.98,-255.58 51.55,-235.64 59.67,-218.7"/>
<polygon fill="black" stroke="black" points="62.64,-220.6 63.81,-210.07 56.33,-217.58 62.64,-220.6"/>
<text text-anchor="middle" x="61.5" y="-231.8" font-family="Times,serif" font-size="14.00"> &#160;r</text>
</g>
<!-- J2 -->
<g id="node4" class="node">
<title>J2</title>
<ellipse fill="none" stroke="black" cx="50" cy="-105" rx="18" ry="18"/>
<text text-anchor="middle" x="50" y="-101.3" font-family="Times,serif" font-size="14.00">J</text>
</g>
<!-- K1&#45;&gt;J2 -->
<g id="edge4" class="edge">
<title>K1&#45;&gt;J2</title>
<path fill="none" stroke="black" d="M66.55,-174.71C64.68,-168.84 62.64,-162.15 61,-156 59.1,-148.87 57.28,-141.11 55.68,-133.87"/>
<polygon fill="black" stroke="black" points="59.13,-133.28 53.62,-124.24 52.28,-134.75 59.13,-133.28"/>
<text text-anchor="middle" x="66" y="-144.8" font-family="Times,serif" font-size="14.00"> s</text>
</g>
<!-- K2 -->
<g id="node5" class="node">
<title>K2</title>
<ellipse fill="none" stroke="black" cx="104" cy="-105" rx="18" ry="18"/>
<text text-anchor="middle" x="104" y="-101.3" font-family="Times,serif" font-size="14.00">K</text>
</g>
<!-- K1&#45;&gt;K2 -->
<g id="edge3" class="edge">
<title>K1&#45;&gt;K2</title>
<path fill="none" stroke="black" d="M78.17,-174.61C82.6,-162.85 88.66,-146.74 93.8,-133.08"/>
<polygon fill="black" stroke="black" points="97.07,-134.35 97.32,-123.76 90.52,-131.88 97.07,-134.35"/>
<text text-anchor="middle" x="95.5" y="-144.8" font-family="Times,serif" font-size="14.00"> &#160;r</text>
</g>
<!-- J3 -->
<g id="node6" class="node">
<title>J3</title>
<ellipse fill="none" stroke="black" cx="77" cy="-18" rx="18" ry="18"/>
<text text-anchor="middle" x="77" y="-14.3" font-family="Times,serif" font-size="14.00">J</text>
</g>
<!-- K2&#45;&gt;J3 -->
<g id="edge6" class="edge">
<title>K2&#45;&gt;J3</title>
<path fill="none" stroke="black" d="M98.79,-87.61C95.08,-75.93 90.01,-59.95 85.69,-46.35"/>
<polygon fill="black" stroke="black" points="89.1,-45.54 82.74,-37.07 82.43,-47.66 89.1,-45.54"/>
<text text-anchor="middle" x="97" y="-57.8" font-family="Times,serif" font-size="14.00"> s</text>
</g>
<!-- Kn&#45;1 -->
<!-- K2&#45;&gt;Kn&#45;1 -->
<g id="edge5" class="edge">
<title>K2&#45;&gt;Kn&#45;1</title>
<path fill="none" stroke="black" stroke-dasharray="1,5" d="M109.21,-87.61C112.92,-75.93 117.99,-59.95 122.31,-46.35"/>
<polygon fill="black" stroke="black" points="125.57,-47.66 125.26,-37.07 118.9,-45.54 125.57,-47.66"/>
<text text-anchor="middle" x="142.5" y="-57.8" font-family="Times,serif" font-size="14.00"> &#160;forever</text>
</g>
</g>
</svg>
