<?xml version="1.0" encoding="UTF-8" standalone="no"?>
<!DOCTYPE svg PUBLIC "-//W3C//DTD SVG 1.1//EN"
 "http://www.w3.org/Graphics/SVG/1.1/DTD/svg11.dtd">
<!-- Generated by graphviz version 7.0.4 (20221203.1631)
 -->
<!-- Title: client&#45;app&#45;upload&#45;service&#45;structure Pages: 1 -->
<svg width="535pt" height="228pt"
 viewBox="0.00 0.00 534.50 227.60" xmlns="http://www.w3.org/2000/svg" xmlns:xlink="http://www.w3.org/1999/xlink">
<g id="graph0" class="graph" transform="scale(1 1) rotate(0) translate(4 223.6)">
<title>client&#45;app&#45;upload&#45;service&#45;structure</title>
<polygon fill="white" stroke="none" points="-4,4 -4,-223.6 530.5,-223.6 530.5,4 -4,4"/>
<!-- start -->
<!-- 1 -->
<g id="node2" class="node">
<title>1</title>
<polygon fill="none" stroke="black" points="418.5,-180 276.5,-180 276.5,-144 418.5,-144 418.5,-180"/>
<text text-anchor="middle" x="347.5" y="-158.3" font-family="Times,serif" font-size="14.00">BaseUploadServiceVC</text>
</g>
<!-- start&#45;&gt;1 -->
<g id="edge1" class="edge">
<title>start&#45;&gt;1</title>
<path fill="none" stroke="black" d="M347.5,-215.87C347.5,-212.77 347.5,-202.44 347.5,-191.72"/>
<polygon fill="black" stroke="black" points="351,-191.77 347.5,-181.77 344,-191.77 351,-191.77"/>
</g>
<!-- 2 -->
<g id="node3" class="node">
<title>2</title>
<polygon fill="none" stroke="black" points="334.5,-108 176.5,-108 176.5,-72 334.5,-72 334.5,-108"/>
<text text-anchor="middle" x="255.5" y="-86.3" font-family="Times,serif" font-size="14.00">GenericUploadServiceVC</text>
</g>
<!-- 1&#45;&gt;2 -->
<g id="edge2" class="edge">
<title>1&#45;&gt;2</title>
<path fill="none" stroke="black" d="M324.76,-143.7C313.48,-135.11 299.67,-124.61 287.36,-115.24"/>
<polygon fill="black" stroke="black" points="289.58,-112.53 279.5,-109.26 285.34,-118.1 289.58,-112.53"/>
</g>
<!-- 1.1 -->
<g id="node4" class="node">
<title>1.1</title>
<polygon fill="none" stroke="black" points="526.5,-108 352.5,-108 352.5,-72 526.5,-72 526.5,-108"/>
<text text-anchor="middle" x="439.5" y="-86.3" font-family="Times,serif" font-size="14.00">MyApplicationsSuppDocVC</text>
</g>
<!-- 1&#45;&gt;1.1 -->
<g id="edge3" class="edge">
<title>1&#45;&gt;1.1</title>
<path fill="none" stroke="black" d="M370.24,-143.7C381.52,-135.11 395.33,-124.61 407.64,-115.24"/>
<polygon fill="black" stroke="black" points="409.66,-118.1 415.5,-109.26 405.42,-112.53 409.66,-118.1"/>
</g>
<!-- 2.1 -->
<g id="node5" class="node">
<title>2.1</title>
<polygon fill="none" stroke="black" points="167,-36 0,-36 0,0 167,0 167,-36"/>
<text text-anchor="middle" x="83.5" y="-14.3" font-family="Times,serif" font-size="14.00">MyApplicationsStatDocVC</text>
</g>
<!-- 2&#45;&gt;2.1 -->
<g id="edge4" class="edge">
<title>2&#45;&gt;2.1</title>
<path fill="none" stroke="black" d="M212.54,-71.52C189.57,-62.17 161.08,-50.57 136.72,-40.66"/>
<polygon fill="black" stroke="black" points="138.19,-37.48 127.61,-36.95 135.55,-43.96 138.19,-37.48"/>
</g>
<!-- 2.2 -->
<g id="node6" class="node">
<title>2.2</title>
<polygon fill="none" stroke="black" points="325.5,-36 185.5,-36 185.5,0 325.5,0 325.5,-36"/>
<text text-anchor="middle" x="255.5" y="-14.3" font-family="Times,serif" font-size="14.00">MyNoticesStatDocVC</text>
</g>
<!-- 2&#45;&gt;2.2 -->
<g id="edge5" class="edge">
<title>2&#45;&gt;2.2</title>
<path fill="none" stroke="black" d="M255.5,-71.7C255.5,-64.41 255.5,-55.73 255.5,-47.54"/>
<polygon fill="black" stroke="black" points="259,-47.62 255.5,-37.62 252,-47.62 259,-47.62"/>
</g>
<!-- 2.3 -->
<g id="node7" class="node">
<title>2.3</title>
<polygon fill="none" stroke="black" points="489.5,-36 343.5,-36 343.5,0 489.5,0 489.5,-36"/>
<text text-anchor="middle" x="416.5" y="-14.3" font-family="Times,serif" font-size="14.00">MyNoticesSuppDocVC</text>
</g>
<!-- 2&#45;&gt;2.3 -->
<g id="edge6" class="edge">
<title>2&#45;&gt;2.3</title>
<path fill="none" stroke="black" d="M295.71,-71.52C317.02,-62.25 343.4,-50.78 366.07,-40.93"/>
<polygon fill="black" stroke="black" points="367.36,-44.18 375.13,-36.99 364.57,-37.76 367.36,-44.18"/>
</g>
</g>
</svg>
